# xmcd
#
# Track frame offsets: 
#        150
#        9660
#        20849
#        34578
#        47049
#        59017
#        70841
#        77482
#        88855
#        100614
#        111824
#        123657
#
# Disc length: 1823 seconds
#
# Revision: 0
# Processed by: cddbd v1.5.2PL0 Copyright (c) Steve Scherf et al.
# Submitted via: ExactAudioCopy v0.99pb5
#
DISCID=9c071d0c
DTITLE=Fred Rai - Romantic Campfire
DYEAR=1900
DGENRE=Country
TTITLE0=Happy Trails to you
TTITLE1=Shenandoah
TTITLE2=Ghost-Riders
TTITLE3=Green, green, grass
TTITLE4=Red River Valley
TTITLE5=Tennesse Waltz
TTITLE6=Bonanza
TTITLE7=Swanee River
TTITLE8=Streets of Laredo
TTITLE9=Sixteen tons
TTITLE10=Home on the range
TTITLE11=What am I doing here
EXTD=
EXTT0=
EXTT1=
EXTT2=
EXTT3=
EXTT4=
EXTT5=
EXTT6=
EXTT7=
EXTT8=
EXTT9=
EXTT10=
EXTT11=
PLAYORDER=
